<mxfile host="app.diagrams.net" modified="2022-01-29T18:47:40.086Z" agent="5.0 (Windows)" etag="6KfOwXejXhCdGRRvKoGl" version="16.5.2" type="github">
  <diagram id="IFSpSiR9jKNboN0qODkQ" name="Page-1">
    <mxGraphModel dx="868" dy="432" grid="1" gridSize="10" guides="1" tooltips="1" connect="1" arrows="1" fold="1" page="1" pageScale="1" pageWidth="827" pageHeight="1169" math="0" shadow="0">
      <root>
        <mxCell id="0" />
        <mxCell id="1" parent="0" />
        <mxCell id="PmyIS6u5g_ccVkfRYbmF-9" value="" style="rounded=0;whiteSpace=wrap;html=1;fontSize=14;dashed=1;" parent="1" vertex="1">
          <mxGeometry x="10" y="40" width="230" height="170" as="geometry" />
        </mxCell>
        <mxCell id="PmyIS6u5g_ccVkfRYbmF-1" value="Workflow Engine" style="text;html=1;strokeColor=none;fillColor=none;align=center;verticalAlign=middle;whiteSpace=wrap;rounded=0;fontSize=21;" parent="1" vertex="1">
          <mxGeometry width="180" height="30" as="geometry" />
        </mxCell>
        <mxCell id="PmyIS6u5g_ccVkfRYbmF-10" value="" style="group;fillColor=#dae8fc;strokeColor=#6c8ebf;" parent="1" vertex="1" connectable="0">
          <mxGeometry x="40" y="140" width="170" height="40" as="geometry" />
        </mxCell>
        <mxCell id="PmyIS6u5g_ccVkfRYbmF-7" value="" style="rounded=0;whiteSpace=wrap;html=1;fontSize=21;fillColor=#0050ef;strokeColor=#001DBC;fontColor=#ffffff;" parent="PmyIS6u5g_ccVkfRYbmF-10" vertex="1">
          <mxGeometry width="170" height="40" as="geometry" />
        </mxCell>
        <mxCell id="PmyIS6u5g_ccVkfRYbmF-8" value="&lt;div&gt;ansible_docker&lt;/div&gt;" style="text;html=1;strokeColor=none;fillColor=none;align=center;verticalAlign=middle;whiteSpace=wrap;rounded=0;fontSize=14;" parent="PmyIS6u5g_ccVkfRYbmF-10" vertex="1">
          <mxGeometry x="30" y="5" width="110" height="30" as="geometry" />
        </mxCell>
        <mxCell id="PmyIS6u5g_ccVkfRYbmF-11" value="" style="group" parent="1" vertex="1" connectable="0">
          <mxGeometry x="40" y="80" width="170" height="40" as="geometry" />
        </mxCell>
        <mxCell id="PmyIS6u5g_ccVkfRYbmF-4" value="" style="rounded=0;whiteSpace=wrap;html=1;fontSize=21;fillColor=#0050ef;strokeColor=#001DBC;fontColor=#ffffff;" parent="PmyIS6u5g_ccVkfRYbmF-11" vertex="1">
          <mxGeometry width="170" height="40" as="geometry" />
        </mxCell>
        <mxCell id="PmyIS6u5g_ccVkfRYbmF-5" value="ansible_azure" style="text;html=1;strokeColor=none;fillColor=none;align=center;verticalAlign=middle;whiteSpace=wrap;rounded=0;fontSize=14;" parent="PmyIS6u5g_ccVkfRYbmF-11" vertex="1">
          <mxGeometry x="30" y="5" width="110" height="30" as="geometry" />
        </mxCell>
        <mxCell id="PmyIS6u5g_ccVkfRYbmF-14" value="Libraries" style="text;html=1;strokeColor=none;fillColor=none;align=center;verticalAlign=middle;whiteSpace=wrap;rounded=0;dashed=1;fontSize=14;" parent="1" vertex="1">
          <mxGeometry x="20" y="40" width="60" height="30" as="geometry" />
        </mxCell>
        <mxCell id="PmyIS6u5g_ccVkfRYbmF-15" value="" style="rounded=0;whiteSpace=wrap;html=1;fontSize=14;dashed=1;" parent="1" vertex="1">
          <mxGeometry x="280" y="40" width="230" height="170" as="geometry" />
        </mxCell>
        <mxCell id="PmyIS6u5g_ccVkfRYbmF-16" value="Containers" style="text;html=1;strokeColor=none;fillColor=none;align=center;verticalAlign=middle;whiteSpace=wrap;rounded=0;dashed=1;fontSize=14;" parent="1" vertex="1">
          <mxGeometry x="290" y="50" width="80" height="30" as="geometry" />
        </mxCell>
        <mxCell id="PmyIS6u5g_ccVkfRYbmF-17" value="" style="group;fillColor=#e1d5e7;strokeColor=#9673a6;" parent="1" vertex="1" connectable="0">
          <mxGeometry x="310" y="90" width="170" height="40" as="geometry" />
        </mxCell>
        <mxCell id="PmyIS6u5g_ccVkfRYbmF-18" value="" style="rounded=0;whiteSpace=wrap;html=1;fontSize=21;fillColor=#660000;strokeColor=#6F0000;fontColor=#ffffff;" parent="PmyIS6u5g_ccVkfRYbmF-17" vertex="1">
          <mxGeometry width="170" height="40" as="geometry" />
        </mxCell>
        <mxCell id="PmyIS6u5g_ccVkfRYbmF-19" value="container_rundeck" style="text;html=1;strokeColor=none;fillColor=none;align=center;verticalAlign=middle;whiteSpace=wrap;rounded=0;fontSize=14;" parent="PmyIS6u5g_ccVkfRYbmF-17" vertex="1">
          <mxGeometry x="30" y="5" width="110" height="30" as="geometry" />
        </mxCell>
      </root>
    </mxGraphModel>
  </diagram>
</mxfile>
